<?xml version="1.0" encoding="UTF-8"?>
<svg id="Layer_1" data-name="Layer 1" xmlns="http://www.w3.org/2000/svg" viewBox="0 0 200 200">
  <defs>
    <style>
      .cls-1 {
        fill: #273b93;
      }

      .cls-2 {
        fill: #273c92;
      }

      .cls-3 {
        fill: #a0cc3b;
      }

      .cls-4 {
        fill: #273c93;
      }

      .cls-5 {
        fill: #273c94;
      }

      .cls-6 {
        fill: #010102;
      }

      .cls-7 {
        fill: #2a3885;
      }

      .cls-8 {
        fill: #273c96;
      }

      .cls-9 {
        fill: #273c97;
      }

      .cls-10 {
        fill: #273c91;
      }

      .cls-11 {
        fill: #273c95;
      }
    </style>
  </defs>
  <circle class="cls-3" cx="100" cy="100" r="86.3"/>
  <g>
    <path class="cls-8" d="M31.79,101.75c.19,.09,.17-.08,.18-.16,.43-3.01,1.85-5.54,3.87-7.75,2.6-2.84,5.71-4.86,9.54-5.56,2.56-.47,5.04-.17,7.23,1.39,1.14,.81,1.52,2.05,1.12,3.35-.34,1.11-1.4,1.86-2.73,1.96-1.79,.13-3.52-.29-5.28-.55-4.08-.6-9.11,.79-11.21,5.38-1.45,3.17-1.23,6.35,.3,9.42,1.67,3.35,4.43,5.45,8.02,6.39,2.55,.66,5.06,.22,7.45-.78,4.42-1.85,6.96-5.19,7.68-9.94,.35-2.27,.34-4.48-.61-6.62-.38-.86-.88-1.65-1.49-2.38-.25-.3-.52-.59-.63-.98-.15-.51,.04-1,.47-1.16,.45-.17,.93,.09,1.12,.62,.06,.16,.1,.33,.11,.5,.02,.89,.47,1.54,1.01,2.22,2.31,2.87,3.59,6.12,3.25,9.84-.27,2.97-1.67,5.4-4.04,7.2-2.92,2.22-6.23,3.53-9.93,3.59-3.62,.06-6.71-1.38-9.37-3.74-2.05-1.81-3.78-3.9-5-6.36-.47-.95-.76-1.97-.9-3.02,0-.05-.04-.09-.07-.13-.06-.07-.07,.02-.1,.04v-.31c.2-.21,.13-.41,0-.62v-.92c.13-.21,.2-.41,0-.62v-.31Z"/>
    <path class="cls-5" d="M168.21,101.24c-.2-.09-.17,.08-.21,.18-.75,2.2-2.42,3.43-4.76,3.51-2.07,.07-4.12-.18-6.17-.42-.28-.03-.43-.1-.2-.4,.28-.37,.54-.75,.78-1.14,.18-.29,.34-.29,.61-.11,1.05,.7,2.14,1.34,3.39,1.63,1.48,.34,2.9,.24,4.1-.8,.95-.82,1.48-2.44-.18-3.54-1.11-.73-2.36-1.13-3.59-1.58-1.17-.42-2.36-.77-3.45-1.38-.37-.21-.72-.46-1.06-.72-1.97-1.5-1.61-4.76,.49-5.9,1.54-.84,3.21-1.01,4.91-.89,1.43,.1,2.82,.45,4.17,.94,.2,.07,.36,.13,.36,.41-.02,1.3,0,2.6-.01,3.9,0,.04-.03,.08-.1,.25-.09-.33-.14-.55-.2-.76-.63-2.6-2.56-4.18-5.23-4.28-1.1-.04-2.18,.06-3.2,.51-1.21,.53-1.55,1.89-.73,2.93,.74,.94,1.81,1.36,2.9,1.72,1.29,.42,2.6,.8,3.89,1.24,.97,.34,1.87,.83,2.59,1.59,.38,.41,.59,.91,.81,1.4,0,.01,.04,.03,.04,.03,.02-.02,.04-.04,.06-.07v.31c-.13,.08-.13,.15,0,.31v.51c-.13,.14-.19,.27,0,.41v.21Z"/>
    <path class="cls-4" d="M168.21,109.44c-1.25,0-2.49,.03-3.74,.02-.38,0-.51,.09-.5,.48,.03,.61,.02,1.23,0,1.84-.01,.33,.09,.44,.43,.43,.89-.02,1.78,.01,2.67-.02,.38-.01,.41,.16,.4,.46,0,.28,0,.48-.39,.47-.9-.03-1.81,0-2.72-.02-.34,0-.39,.13-.39,.42,.02,.7,.02,1.4,0,2.1-.01,.35,.09,.47,.45,.46,1.06-.02,2.12,0,3.18-.01,.34,0,.53,.02,.52,.45,0,.38-.1,.49-.49,.48-1.4-.02-2.8-.02-4.2,0-.33,0-.44-.08-.44-.43,.01-2.53,.01-5.06,0-7.59,0-.28,.03-.44,.38-.43,1.47,.02,2.94,0,4.41,0,.16,0,.3,.04,.42,.13v.72Z"/>
    <path class="cls-6" d="M31.79,102.06c.2,.21,.13,.41,0,.62v-.62Z"/>
    <path class="cls-6" d="M31.79,103.6c.13,.21,.2,.41,0,.62v-.62Z"/>
    <path class="cls-6" d="M168.21,101.03c-.19-.14-.13-.27,0-.41v.41Z"/>
    <path class="cls-6" d="M168.21,100.11c-.13-.16-.13-.23,0-.31v.31Z"/>
    <path class="cls-11" d="M102.11,82.28c1.09-.03,2.01-.01,2.93,.09,.82,.09,1.43,.75,1.52,1.68,.03,.27,.03,.55,.03,.82,0,6.41,0,12.82,.02,19.23,0,.54-.15,.67-.66,.63-.65-.04-1.3-.03-1.95,0-.32,.01-.4-.1-.39-.41,.02-1.61,0-3.21,0-4.82v-.69c-.33,.42-.56,.73-.82,1.03-2.07,2.46-4.6,4.2-7.8,4.83-1.27,.25-2.54,.26-3.81-.05-2.56-.62-4.04-2.59-3.93-5.23,.12-2.78,1.44-4.97,3.43-6.79,1.66-1.51,3.62-2.48,5.84-2.89,1.14-.21,2.27-.2,3.37,.25,.27,.11,.52,.26,.74,.45,.96,.82,.94,2.08-.05,2.86-1.2,.94-2.62,1.43-4.04,1.91-2.06,.7-4.13,1.37-6.21,2.03-.29,.09-.44,.23-.46,.52-.17,1.84,.19,3.53,1.38,4.99,1.01,1.23,2.37,1.39,3.82,1.15,2.43-.42,4.45-1.66,6.3-3.21,.64-.54,1.23-1.14,1.77-1.77,.31-.36,.53-.74,.52-1.23-.03-4.36-.04-8.71-.08-13.07-.01-.96-.25-1.88-1.48-2.28Zm-5.99,8.47c-.2,.01-.5,0-.8,.08-2.76,.77-4.44,2.58-5.18,5.31-.14,.53-.12,.55,.39,.39,1.92-.59,3.83-1.18,5.75-1.79,.6-.19,1.21-.34,1.73-.73,.87-.65,.98-1.75,.23-2.53-.55-.56-1.23-.77-2.11-.74Z"/>
    <path class="cls-11" d="M82.74,89.73c.73,0,1.47,0,2.2,0,.25,0,.33,.11,.31,.34,0,.07,0,.14,0,.2,0,4.63,0,9.26,.01,13.89,0,.44-.12,.53-.56,.58-.98,.12-1.51-.24-1.95-1.13-1.09-2.17-2.32-4.28-3.49-6.42-.07-.13-.15-.26-.29-.49-.3,.56-.56,1.07-.82,1.57-1.04,1.99-2.07,3.99-3.11,5.98-.13,.25-.24,.48-.62,.48-.4,0-.52-.2-.67-.48-2.06-3.86-4.14-7.71-6.19-11.58-.65-1.23-1.45-2.3-2.8-2.87,.15-.14,.31-.08,.45-.08,1.11,0,2.22,.01,3.33-.01,.36,0,.54,.12,.7,.44,2.03,3.97,4.08,7.94,6.12,11.9,.05,.09,.09,.18,.14,.28,.2-.03,.21-.21,.27-.33,.93-1.84,1.84-3.68,2.76-5.52,.08-.16,.19-.3,.07-.52-.81-1.48-1.53-3.01-2.42-4.44-.49-.79-1.21-1.36-2.07-1.8,1.32,0,2.65,0,3.97,0,.26,0,.31,.24,.4,.42,2.01,3.89,4.01,7.78,6.01,11.67,.07,.13,.14,.26,.33,.37,0-.34,0-.69,0-1.03-.02-2.78-.06-5.57-.07-8.35-.01-1.75-.39-2.33-2-3.07Z"/>
    <path class="cls-8" d="M114.89,89.78c.82-.07,1.62-.1,2.41,.03,.84,.13,1.32,.69,1.47,1.6,.05,.32,.08,.64,.1,.97,.02,.32,0,.63,0,1.09,.65-.91,1.25-1.66,2.01-2.27,1.63-1.32,3.49-1.83,5.55-1.41,1.87,.38,3.09,1.92,3.1,3.91,.02,3.54,0,7.07,.01,10.61,0,.35-.12,.43-.44,.42-.6-.02-1.2-.03-1.79,0-.38,.02-.45-.12-.45-.47,.01-3.35,0-6.7,0-10.05,0-.72-.13-1.42-.38-2.1-.58-1.59-1.51-2.12-3.14-1.72-2.08,.51-3.45,1.89-4.43,3.73-.1,.18-.06,.37-.06,.55,0,3.18,0,6.36,0,9.53,0,.38-.07,.55-.5,.52-.6-.04-1.2-.03-1.79,0-.38,.02-.5-.08-.48-.48,.05-.99,.07-1.98,.08-2.97,.01-2.1,.04-4.2-.01-6.3-.03-1.11,.03-2.22-.15-3.32-.12-.78-.32-1.5-1.13-1.88Z"/>
    <path class="cls-9" d="M108.8,82.31c.83-.03,1.65,0,2.47,.03,1.23,.05,1.76,.9,1.85,1.92,.02,.22,.01,.44,.01,.67,0,6.41,0,12.82,.01,19.23,0,.48-.14,.61-.6,.58-.65-.04-1.3-.03-1.95,0-.37,.02-.45-.12-.45-.46,.01-2.31,0-4.61,0-6.92,0-4.1,0-8.2,0-12.31,0-.55-.07-1.09-.25-1.61-.19-.54-.57-.91-1.12-1.12Z"/>
    <path class="cls-5" d="M142.88,101.97c-1.78,1.99-4,2.94-6.66,2.88-1.45-.03-2.8-.35-3.94-1.31-1.06-.89-1.6-2.06-1.71-3.43-.2-2.54,.75-4.68,2.4-6.53,1.99-2.23,4.5-3.56,7.46-3.99,1.09-.16,2.18-.05,3.19,.48,1.46,.77,1.75,2.65,.19,3.64-1.34,.85-2.84,1.3-4.33,1.77-1.86,.59-3.72,1.2-5.57,1.84-.33,.11-.51,.27-.54,.62-.16,1.73,.14,3.34,1.24,4.72,1.1,1.37,2.59,1.41,4.15,1.09,1.44-.29,2.68-.97,3.79-1.9,.05-.05,.1-.1,.15-.16,0,0,.03-.02,.03-.02,.05,.1,.09,.19,.14,.29Zm-9.36-5.13c2.05-.65,4.03-1.27,6-1.91,.64-.21,1.32-.35,1.89-.74,1.07-.73,1.16-2.02,.17-2.86-.7-.59-1.52-.74-2.4-.61-1.84,.27-3.16,1.34-4.26,2.77-.74,.96-1.2,2.04-1.4,3.36Z"/>
    <path class="cls-5" d="M155.36,92.31c-1.25-1.12-2.63-1.85-4.25-2.1-1.2-.18-2.36,0-3.42,.58-1.19,.64-1.2,2.29-.06,3.24,.73,.61,1.59,.97,2.49,1.27,1.55,.52,3.14,.89,4.64,1.55,.41,.18,.79,.41,1.15,.67,1.81,1.34,2.07,3.47,.64,5.45-.95,1.32-2.34,1.84-3.89,1.94-2.12,.14-4.22-.16-6.32-.42-.2-.02-.39-.05-.39-.36,0-1.45-.01-2.9-.02-4.36,0-.05,.03-.09,.04-.15,.18,.15,.12,.36,.14,.53,.1,.92,.5,1.69,1.12,2.36,1.75,1.92,4.62,2.63,6.87,1.7,.61-.25,1.14-.61,1.49-1.19,.61-1.01,.41-2.04-.54-2.75-.95-.72-2.07-1.1-3.17-1.5-1.44-.53-2.92-.93-4.25-1.71-.34-.2-.64-.44-.95-.69-1.83-1.43-1.51-4.78,.71-5.88,1.42-.7,2.92-.94,4.47-.82,1.36,.11,2.68,.45,3.99,.83,.39,.11,.4,.26,.21,.56-.24,.39-.45,.8-.7,1.23Z"/>
    <path class="cls-1" d="M117.52,108.5c1.13,0,2,.37,2.63,1.25,.31,.44-.18,.5-.32,.71-.19,.28-.31,0-.41-.12-.65-.8-1.45-1.16-2.48-.9-.71,.17-1.13,.62-1.18,1.23-.05,.65,.22,1.05,.97,1.32,.46,.17,.95,.27,1.42,.42,.31,.1,.62,.2,.91,.33,.8,.36,1.35,.9,1.37,1.85,.02,1.01-.44,1.73-1.31,2.19-1.44,.76-3.54,.3-4.52-.94-.39-.5,.1-.66,.3-.88,.26-.31,.32,.11,.41,.22,.88,.98,2.03,1.34,3.13,.94,.64-.23,1.03-.69,1.05-1.25,.02-.66-.38-1.02-.93-1.27-.69-.31-1.44-.4-2.14-.67-.71-.27-1.31-.67-1.53-1.45-.41-1.45,.57-2.78,2.16-2.94,.19-.02,.37-.02,.48-.03Z"/>
    <path class="cls-11" d="M102.77,112.78c0-1.25,0-2.49,0-3.74,0-.32,.08-.45,.43-.44,1.42,.02,2.84,.02,4.25,0,.33,0,.44,.09,.45,.43,0,.37-.13,.46-.48,.45-1.08-.02-2.15,0-3.23-.01-.36,0-.52,.07-.5,.47,.04,.61,.03,1.23,0,1.84-.02,.37,.12,.46,.47,.45,.84-.02,1.67,0,2.51-.01,.35,0,.55,.02,.55,.48,0,.44-.19,.45-.52,.45-.87-.02-1.74,0-2.61-.01-.28,0-.39,.07-.38,.37,.02,.75,.02,1.5,0,2.25,0,.31,.12,.36,.39,.36,1.11-.01,2.22,0,3.33-.01,.35,0,.44,.12,.42,.44-.01,.3,0,.51-.42,.5-1.42-.03-2.84-.02-4.25,0-.33,0-.4-.11-.39-.41,.01-1.28,0-2.56,0-3.84Z"/>
    <path class="cls-2" d="M90.07,112.83c0-1.25,.01-2.49,0-3.74,0-.36,.06-.51,.47-.51,1.47,.03,2.94,.02,4.41,0,.35,0,.46,.08,.47,.45,0,.39-.15,.44-.48,.44-1.13-.02-2.25,0-3.38-.01-.37,0-.52,.08-.5,.48,.03,.63,.03,1.26,0,1.89-.02,.37,.08,.5,.48,.49,.97-.03,1.95,0,2.92-.02,.36,0,.41,.15,.41,.45,0,.32-.03,.5-.43,.49-.99-.03-1.98,0-2.97-.02-.32,0-.41,.1-.41,.41,.02,.99-.01,1.98,.02,2.97,.01,.41-.19,.42-.5,.42-.3,0-.51,0-.5-.41,.03-1.26,0-2.53,0-3.79Z"/>
    <path class="cls-1" d="M137.95,108.66c.76-.21,1.23,0,1.63,.63,.64,1.04,1.39,2.02,2.12,3.07,.72-1.11,1.41-2.16,2.09-3.22,.41-.64,.53-.68,1.39-.47-.62,.95-1.18,1.93-1.87,2.8-.91,1.15-1.36,2.39-1.16,3.86,.06,.44-.02,.89,.02,1.33,.03,.44-.26,.33-.5,.35-.27,.02-.45,0-.44-.37,.02-.97,0-1.95,.01-2.92,0-.31-.08-.55-.25-.8-1.01-1.41-2.01-2.83-3.03-4.28Z"/>
    <path class="cls-2" d="M129.31,113.28c0,1.11-.02,2.22,0,3.33,.01,.41-.19,.43-.5,.42-.3,0-.51,0-.5-.41,.02-2.2,0-4.41,.02-6.61,0-.42-.1-.58-.54-.55-.51,.04-1.03,0-1.54,.01-.4,.02-.31-.25-.32-.48-.02-.25,.01-.41,.34-.41,1.73,.01,3.45,.02,5.18,0,.39,0,.33,.22,.35,.46,.02,.28-.02,.45-.37,.43-.56-.03-1.13,.01-1.69-.01-.34-.02-.44,.11-.44,.44,.02,1.13,0,2.26,0,3.38Z"/>
    <path class="cls-10" d="M152.44,112.77c0-1.25,.02-2.49,0-3.74,0-.39,.15-.44,.48-.44,.33,0,.53,.02,.52,.45-.02,2.19,0,4.37-.02,6.56,0,.4,.1,.53,.51,.51,1.02-.03,2.05,0,3.07-.02,.36,0,.47,.1,.46,.46,0,.32-.04,.49-.43,.48-1.38-.02-2.77-.02-4.15,0-.38,0-.45-.14-.44-.48,.02-1.26,0-2.53,0-3.79Z"/>
    <path class="cls-9" d="M68.51,112.36c0,1.06,.03,2.12-.01,3.17-.02,.5,.16,.59,.6,.58,1.02-.03,2.05,.01,3.07-.02,.42-.01,.41,.2,.42,.5,.01,.33-.09,.44-.43,.44-1.38-.02-2.77-.02-4.15,0-.32,0-.45-.06-.44-.42,.01-2.54,.02-5.09,0-7.63,0-.4,.19-.4,.47-.39,.27,0,.49-.02,.48,.39-.03,1.13,0,2.25,0,3.38Z"/>
    <path class="cls-11" d="M80.38,112.77c0-1.25,.01-2.49,0-3.74,0-.37,.13-.46,.47-.45,.32,0,.49,.03,.49,.43-.02,2.52-.02,5.05,0,7.57,0,.37-.13,.44-.47,.45-.37,0-.5-.08-.49-.48,.03-1.26,0-2.52,0-3.79Z"/>
    <path class="cls-7" d="M142.88,101.97c-.05-.1-.09-.19-.14-.29,.73-.74,1.3-1.58,1.76-2.51-.3,1.07-.82,2.02-1.62,2.8Z"/>
    <path class="cls-7" d="M142.71,101.7c-.05,.05-.1,.1-.15,.16,.05-.05,.1-.1,.15-.16Z"/>
  </g>
</svg>