<?xml version="1.0" encoding="UTF-8"?>
<svg id="Layer_1" data-name="Layer 1" xmlns="http://www.w3.org/2000/svg" viewBox="0 0 200 200">
  <defs>
    <style>
      .cls-1 {
        fill: #fbbc15;
      }

      .cls-2 {
        fill: #3d80bf;
      }

      .cls-3 {
        fill: #1675bc;
      }

      .cls-4 {
        fill: #3988c5;
      }

      .cls-5 {
        fill: #2371b7;
      }

      .cls-6 {
        fill: #a0cc3b;
      }

      .cls-7 {
        fill: #2874b9;
      }

      .cls-8 {
        fill: #40a6dc;
      }

      .cls-9 {
        fill: #fbbe1a;
      }

      .cls-10 {
        fill: #347bbc;
      }

      .cls-11 {
        fill: #f9a721;
      }

      .cls-12 {
        fill: #61a5d4;
      }
    </style>
  </defs>
  <circle class="cls-6" cx="100" cy="100" r="86.3"/>
  <g>
    <path class="cls-1" d="M100,131.44c-18.43,0-36.87-.05-55.3,.06-2.48,.02-2.99-.68-2.98-3.05,.1-19.02,.09-38.04,0-57.05,0-2.21,.47-2.91,2.82-2.9,36.97,.08,73.93,.08,110.9,0,2.35,0,2.83,.68,2.82,2.9-.09,19.02-.09,38.04,0,57.05,.01,2.37-.5,3.07-2.98,3.05-18.43-.12-36.87-.06-55.3-.06Zm-.08-1.16c18.14,0,36.29-.04,54.43,.05,2.11,0,2.77-.42,2.76-2.67-.1-18.44-.1-36.87,0-55.31,.01-2.25-.64-2.68-2.76-2.68-36.19,.07-72.38,.07-108.57,0-2.2,0-2.92,.45-2.91,2.82,.11,18.34,.11,36.68,0,55.02-.01,2.36,.7,2.83,2.91,2.82,18.05-.09,36.09-.05,54.14-.05Z"/>
    <path class="cls-11" d="M112.47,95.18c0-5.04,0-10.08,0-15.12,0-3.91,.01-3.97,3.8-3.93,6.28,.08,12.62-.87,18.82,.62,5.6,1.35,10.45,4.06,13.83,8.93,5.23,7.53,4.18,16.79-2.76,22.73-4.61,3.95-9.93,6.26-16.16,6.16-4.55-.08-9.11-.01-13.66-.02-3.72,0-3.85-.12-3.87-3.97-.02-5.14,0-10.27,0-15.41Zm11.41,.16s-.05,0-.08,0c0,2.52,0,5.04,0,7.57,0,3.54,.46,3.94,4.09,3.69,.77-.05,1.55-.11,2.32-.22,5.9-.88,9.87-4.98,10.05-10.29,.33-9.18-7.42-12.62-14.38-11.84-1.56,.17-2.04,1.18-2.01,2.66,.05,2.81,.02,5.62,.02,8.44Z"/>
    <path class="cls-9" d="M54.63,76.19c3.59-1.27,5.35,1.13,6.8,4.69,1.94,4.73,4.32,9.29,6.53,13.92,.53,1.11,.93,2.42,2.58,2.34,1.43-.07,1.92-1.17,2.42-2.21,2.63-5.49,5.31-10.96,7.82-16.51,.75-1.65,1.66-2.38,3.5-2.26,2.32,.15,4.65,0,6.98,.06,1.67,.05,2.28,.82,1.46,2.47-5.73,11.51-11.45,23.03-17.14,34.56-.51,1.03-1.23,1.28-2.3,1.34-6.98,.43-6.99,.45-10.06-5.72-4.82-9.7-9.62-19.42-14.43-29.13-1.59-3.21-1.4-3.52,2.24-3.54,.97,0,1.94,0,3.6,0Z"/>
    <path class="cls-3" d="M100.46,88.95c.04-1.55,.09-3.1,.13-4.66,.23-.77,1.25-1.85-.68-1.81-1.28,.09-1.44-1.04-1.38-1.73,.08-.88,1.09-.49,1.7-.55,2.22-.19,3.92-.46,3.17,3.11-.66,3.17,.81,6.48,1.86,9.59,2.21,6.6,1.31,13.42,1.66,20.16,.06,1.06-.63,1.79-1.51,1.81-3.15,.07-6.34,.79-9.43-.42,0-.46,0-.92,.55-1.1,0,0,.15-.03,.15-.03,.39,.69,1.17,1.03,1.67,.57,.64-.58-.39-.79-.63-1.19-.01-1.89-.02-3.79-.04-5.68,.68-2.89,.47-5.83,.43-8.76,.64-2.31,1.27-4.63,1.91-6.94,.6-.71,.51-1.54,.43-2.38Z"/>
    <path class="cls-7" d="M66.87,127.15c-.69-2.99-.3-5.39-.4-7.76-.02-.49,.05-1.01,.61-1.17,.54-.16,.93,.19,1.22,.59,1.13,1.55,2.23,3.12,3.56,4.98,.87-1.96-.07-3.98,.77-5.61,.29,0,.57,.01,.86,.02,0,2.6,.18,5.22-.08,7.8-.12,1.18-1.14,.64-1.65-.04-1.14-1.52-2.23-3.08-3.46-4.78-1.02,1.86,.42,3.98-1.43,5.97Z"/>
    <path class="cls-2" d="M107.01,121.41c2.09-.71,2.74-3.53,5.29-3.21-.28,1.89-3.34,2.05-2.57,4.11,.57,1.51,1.91,2.74,3,4.22-2.17,.55-2.42-1.21-3.31-2.06-.53-.51-.75-1.58-1.64-1.41-.86,.16-.93,1.07-.99,1.87-.05,.67,.3,1.82-.95,1.63-.87-.13-.55-1.1-.57-1.72-.04-1.64-.04-3.28,0-4.92,.01-.62-.25-1.62,.64-1.67,1.17-.07,.79,1.04,.9,1.73,.07,.44,.12,.88,.2,1.43Z"/>
    <path class="cls-5" d="M91.94,126.52c-1.7,.28-2.01-.83-2.52-1.56-.74-1.07-1.47-2.19-2.98-1.83-1.56,.37-.61,1.8-.94,2.69-.1,.26-.24,.51-.72,.78-.69-2.59-1.14-5.51-.2-7.81,.65-1.59,3.48-.78,5.3-.33,1.54,.38,2.12,2.14,1.23,2.95-1.86,1.69-.5,2.66,.26,3.9,.19,.31,.32,.67,.58,1.2Zm-4.24-4.6c.96-.16,2.41,0,2.25-1.51-.14-1.38-1.55-1.15-2.59-1.2-1.01-.05-1.96-.09-1.84,1.43,.12,1.53,1.23,1.16,2.18,1.28Z"/>
    <path class="cls-7" d="M102.03,123.94c.6-2.17-.17-4.04,.95-5.71,.91,2.58,.78,5.29,.42,7.9-.16,1.16-1.23,.3-1.66-.26-1.17-1.52-2.25-3.1-3.57-4.93-.88,1.99,.13,3.99-1.18,6.45-.69-3.37-.54-6.01-.27-8.57,.13-1.16,1.16-.58,1.66,.08,1.16,1.54,2.26,3.12,3.65,5.06Z"/>
    <path class="cls-7" d="M133.47,117.98c.47,.15,1.13,.29,1.74,.55,.86,.37,1.62,1.15,1,1.95-.7,.9-1.02-.36-1.45-.7-.87-.7-1.78-.7-2.68-.23-.27,.14-.57,.67-.5,.92,.3,1.03,1.31,.91,2.12,1.16,1.34,.42,2.96,.55,3.07,2.5,.08,1.41-.77,2.17-1.97,2.49-1.66,.45-3.29,.33-4.48-1.13-.32-.39-.85-.97-.21-1.48,.5-.4,.88,.07,1.15,.46,.4,.58,.9,1.02,1.62,1.09,.97,.09,2.14,.2,2.47-.93,.34-1.18-.85-1.29-1.63-1.58-.36-.14-.74-.19-1.12-.28-1.41-.34-2.65-.92-2.38-2.68,.26-1.72,1.67-1.9,3.25-2.1Z"/>
    <path class="cls-5" d="M75.34,122.23c.63-1.56-1.31-4.39,2.53-4.15,3.36,.21,4.92,1.36,4.95,4.27,.03,2.94-1.51,4.19-4.81,4.4-4.27,.28-1.87-2.95-2.66-4.52Zm6.03,.33c-.01-2.27-1.02-3.37-3.03-3.24-3.1,.2-1.17,2.6-1.56,3.95-.37,1.27-.16,2.48,1.8,2.28,2.07-.21,2.85-1.32,2.79-3Z"/>
    <path class="cls-7" d="M142.51,117.99c.45,.16,1.23,.32,1.86,.71,.62,.38,1.51,1,.88,1.81-.72,.92-1.06-.26-1.5-.61-1.29-1.04-2.61-.98-3.57,.25-1.19,1.52-1.18,3.32,.15,4.74,1.07,1.15,2.44,1.01,3.59-.11,.44-.43,.78-1.48,1.49-.76,.67,.67-.1,1.43-.67,1.87-1.52,1.17-3.25,1.37-4.86,.31-1.81-1.2-2.27-3.01-1.72-5.09,.55-2.08,2-2.96,4.35-3.11Z"/>
    <path class="cls-10" d="M57.92,124.59c1.7-2.14,1.51-5,4.1-6.91-.57,3.33-1.98,5.74-3.02,8.26-.47,1.12-1.44,1.02-1.92-.05-1-2.2-1.84-4.47-2.76-6.7-.17-.4-.22-.82,.2-.97,.5-.19,.96,.06,1.16,.58,.73,1.84,1.44,3.7,2.25,5.8Z"/>
    <path class="cls-8" d="M101.74,74.95c1.43,.16,3.01,.48,2.22,2.37-.65,1.57-2.22,2.11-3.88,1.4-1.45-.62-2.06-1.72-1.17-3.24,.63-1.08,1.4-2.04,2.74-2.67,.04,.83,.07,1.49,.1,2.15-.29,.05-.64,.07-.21,.46l.2-.47Z"/>
    <path class="cls-2" d="M128.59,121.94c-.11,1.04-.07,2.13-.37,3.12-.55,1.85-2.79,2.41-4.13,1.12-.49-.47-1.05-1.11-.55-1.74,.8-1.03,.99,.15,1.38,.54,1.11,1.1,1.78,.5,1.92-.68,.18-1.52,.07-3.06,.13-4.6,.02-.62-.14-1.53,.87-1.45,.76,.06,.63,.83,.65,1.38,.03,.77,0,1.54,0,2.3,.03,0,.06,0,.1,0Z"/>
    <path class="cls-12" d="M96.54,113.36c-.56,.18-.55,.64-.55,1.1-.21-.31-.6-.63-.59-.93,.16-5.49-.71-11.02,.49-16.48,.14,.61-.16,1.37,.59,1.78,.02,4.84,.04,9.69,.07,14.53Z"/>
    <path class="cls-10" d="M94.86,122.14c-.55,1.57,.48,4.32-.76,4.2-1.91-.18-.71-2.67-.81-4.12-.09-1.3-.68-3.86,.58-3.77,1.85,.14,.23,2.56,.99,3.69Z"/>
    <path class="cls-4" d="M96.47,98.83c-.75-.41-.45-1.16-.59-1.78,.99-3.43,1.98-6.86,2.96-10.29,.73,4.4-1.77,8.01-2.37,12.06Z"/>
    <path class="cls-5" d="M64.32,118.27v8.29c-.21,0-.43,.01-.64,.02v-8.3c.21,0,.43,0,.64-.01Z"/>
    <path class="cls-12" d="M98.12,98.27c.04,2.93,.25,5.86-.43,8.76,.15-2.92-.54-5.88,.43-8.76Z"/>
    <path class="cls-12" d="M99.91,82.48c1.93-.03,.9,1.04,.68,1.81-.08-.66,.06-1.4-.68-1.81Z"/>
    <path class="cls-12" d="M97.73,112.71c.25,.4,1.27,.61,.63,1.19-.5,.46-1.27,.12-1.67-.57,.48,.02,.84-.16,1.04-.62Z"/>
    <path class="cls-12" d="M100.46,88.95c.08,.83,.17,1.67-.43,2.38,0-.82-.28-1.69,.43-2.38Z"/>
    <path class="cls-12" d="M99.97,85.16c-.1,.15-.19,.3-.28,.44-.08-.16-.22-.31-.21-.47,0-.15,.17-.29,.26-.43,.08,.15,.16,.31,.24,.46Z"/>
    <path class="cls-8" d="M101.74,74.95l-.2,.47c-.43-.39-.08-.41,.21-.46,0,0-.01-.01-.01-.01Z"/>
  </g>
</svg>